<svg width="36" height="36" viewBox="0 0 36 36" fill="none" xmlns="http://www.w3.org/2000/svg">
<g clip-path="url(#clip0)" filter="url(#filter0_d)">
<path d="M31.9726 8.23208C31.907 6.74433 31.6664 5.72152 31.3218 4.83523C30.9662 3.89447 30.4192 3.0522 29.7026 2.35202C29.0024 1.64095 28.1546 1.08841 27.2248 0.738425C26.3333 0.393784 25.3159 0.153198 23.8281 0.0876025C22.3293 0.0164522 21.8534 0 18.0519 0C14.2504 0 13.7746 0.0164522 12.2813 0.0820473C10.7935 0.147642 9.7707 0.388443 8.88464 0.73287C7.94366 1.08841 7.10139 1.63539 6.40121 2.35202C5.69014 3.0522 5.13782 3.90002 4.78762 4.82989C4.44298 5.72152 4.20239 6.73877 4.1368 8.22652C4.06565 9.72538 4.04919 10.2012 4.04919 14.0027C4.04919 17.8043 4.06565 18.2801 4.13124 19.7734C4.19684 21.2611 4.43764 22.284 4.78228 23.1702C5.13782 24.111 5.69014 24.9533 6.40121 25.6534C7.10139 26.3645 7.94921 26.9171 8.87908 27.267C9.7707 27.6117 10.788 27.8523 12.2759 27.9179C13.769 27.9837 14.2451 27.9999 18.0466 27.9999C21.8481 27.9999 22.3239 27.9837 23.8172 27.9179C25.305 27.8523 26.3278 27.6117 27.2139 27.267C29.0956 26.5395 30.5833 25.0518 31.3109 23.1702C31.6553 22.2786 31.8961 21.2611 31.9617 19.7734C32.0273 18.2801 32.0437 17.8043 32.0437 14.0027C32.0437 10.2012 32.0382 9.72538 31.9726 8.23208ZM29.4511 19.664C29.3909 21.0315 29.1612 21.7699 28.9697 22.2622C28.4993 23.482 27.5311 24.4501 26.3113 24.9206C25.8191 25.112 25.0753 25.3417 23.7132 25.4018C22.2363 25.4676 21.7934 25.4838 18.0575 25.4838C14.3215 25.4838 13.8731 25.4676 12.4016 25.4018C11.0341 25.3417 10.2957 25.112 9.8034 24.9206C9.19637 24.6962 8.64384 24.3407 8.19536 23.8758C7.73042 23.4217 7.37488 22.8747 7.15054 22.2677C6.95909 21.7754 6.7294 21.0315 6.66936 19.6696C6.60355 18.1927 6.58732 17.7496 6.58732 14.0136C6.58732 10.2777 6.60355 9.82922 6.66936 8.35793C6.7294 6.99047 6.95909 6.25204 7.15054 5.75976C7.37488 5.15253 7.73042 4.6002 8.20091 4.15151C8.65473 3.68657 9.20172 3.33103 9.80895 3.1069C10.3012 2.91546 11.0452 2.68577 12.4071 2.62551C13.884 2.55992 14.3271 2.54347 18.0628 2.54347C21.8043 2.54347 22.2472 2.55992 23.7187 2.62551C25.0862 2.68577 25.8246 2.91546 26.3169 3.1069C26.9239 3.33103 27.4764 3.68657 27.9249 4.15151C28.3899 4.60554 28.7454 5.15253 28.9697 5.75976C29.1612 6.25204 29.3909 6.99581 29.4511 8.35793C29.5167 9.83478 29.5332 10.2777 29.5332 14.0136C29.5332 17.7496 29.5167 18.1871 29.4511 19.664Z" fill="white"/>
<path d="M18.0519 6.81006C14.0809 6.81006 10.8591 10.0317 10.8591 14.0029C10.8591 17.974 14.0809 21.1957 18.0519 21.1957C22.0231 21.1957 25.2447 17.974 25.2447 14.0029C25.2447 10.0317 22.0231 6.81006 18.0519 6.81006ZM18.0519 18.6687C15.4757 18.6687 13.3861 16.5792 13.3861 14.0029C13.3861 11.4265 15.4757 9.33707 18.0519 9.33707C20.6283 9.33707 22.7177 11.4265 22.7177 14.0029C22.7177 16.5792 20.6283 18.6687 18.0519 18.6687Z" fill="white"/>
<path d="M27.2085 6.52563C27.2085 7.45294 26.4566 8.20483 25.5291 8.20483C24.6018 8.20483 23.8499 7.45294 23.8499 6.52563C23.8499 5.59811 24.6018 4.84644 25.5291 4.84644C26.4566 4.84644 27.2085 5.59811 27.2085 6.52563Z" fill="white"/>
</g>
<defs>
<filter id="filter0_d" x="0" y="0" width="36" height="36" filterUnits="userSpaceOnUse" color-interpolation-filters="sRGB">
<feFlood flood-opacity="0" result="BackgroundImageFix"/>
<feColorMatrix in="SourceAlpha" type="matrix" values="0 0 0 0 0 0 0 0 0 0 0 0 0 0 0 0 0 0 127 0" result="hardAlpha"/>
<feOffset dy="4"/>
<feGaussianBlur stdDeviation="2"/>
<feComposite in2="hardAlpha" operator="out"/>
<feColorMatrix type="matrix" values="0 0 0 0 0 0 0 0 0 0 0 0 0 0 0 0 0 0 0.25 0"/>
<feBlend mode="normal" in2="BackgroundImageFix" result="effect1_dropShadow"/>
<feBlend mode="normal" in="SourceGraphic" in2="effect1_dropShadow" result="shape"/>
</filter>
<clipPath id="clip0">
<rect width="28" height="28" fill="white" transform="translate(4)"/>
</clipPath>
</defs>
</svg>
